<?xml version="1.0" encoding="UTF-8" standalone="no"?><svg xmlns="http://www.w3.org/2000/svg" xmlns:xlink="http://www.w3.org/1999/xlink" style="isolation:isolate" viewBox="0 0 500 500" width="500pt" height="500pt"><defs><clipPath id="_clipPath_103eoT403H3IdpIDwVk2Rh7Ed99S9Lii"><rect width="500" height="500"/></clipPath></defs><g clip-path="url(#_clipPath_103eoT403H3IdpIDwVk2Rh7Ed99S9Lii)"><path d=" M 255.52 407.384 C 255.52 405.664 258.957 398.769 262.761 392.222 C 274.83 372.57 361.02 222.581 367.22 210.183 C 372.048 200.875 372.394 197.768 368.607 193.288 C 365.153 188.812 355.845 188.114 309.99 189.487 C 256.543 190.874 255.52 190.527 255.52 183.637 C 255.52 173.983 276.546 35.733 277.919 33.999 C 281.72 30.559 342.39 45.041 366.874 55.024 C 401.007 69.177 431.345 97.097 446.52 128.47 C 467.892 172.263 466.852 269.48 445.147 312.926 C 418.596 365.329 357.566 400.836 281.72 407.731 C 267.242 409.118 255.52 408.771 255.52 407.384 Z " fill="rgb(22,21,64)"/><path d=" M 59 263.613 L 59 45.041 L 86.919 41.236 C 122.08 36.062 244.826 28.821 247.586 31.234 C 248.626 32.279 216.555 87.789 176.221 154.327 C 136.233 220.865 103.815 277.744 104.509 281.202 C 105.535 286.376 111.403 287.07 160.698 287.745 L 215.862 288.443 L 215.186 298.098 C 213.448 320.843 193.116 476.331 191.396 479.092 C 190.356 480.483 160.352 481.852 124.165 481.852 L 59 481.852 L 59 263.613 Z " fill="rgb(82,192,167)"/><g opacity="0.15"><path d=" M 191.049 482.897 C 193.463 472.202 214.141 313.602 215.186 298.098 L 215.862 288.443 L 160.698 287.745 C 111.403 287.07 105.535 286.376 104.509 281.202 C 103.815 277.744 135.539 221.212 175.18 155.367 C 214.493 89.162 250.346 29.172 254.48 21.584 C 259.654 11.596 263.784 7.795 269.656 7.795 C 277.243 7.795 277.919 9.187 277.243 21.584 C 276.897 29.172 271.372 69.506 264.482 111.232 C 257.934 152.953 252.413 188.465 252.067 190.181 C 252.067 191.554 276.546 192.594 306.536 192.248 C 336.189 191.554 362.74 191.554 365.153 191.901 C 371.701 192.594 369.981 202.942 361.366 218.104 C 291.721 338.085 255.52 403.597 255.52 408.771 C 255.52 412.207 247.586 428.427 237.931 444.278 C 227.93 460.133 217.929 477.376 215.186 482.897 C 211.381 489.791 207.598 492.205 199.664 492.205 C 190.009 492.205 189.311 491.507 191.049 482.897 Z " fill="rgb(249,251,251)"/></g></g></svg>